<?xml version="1.0" encoding="UTF-8" standalone="no"?>
<!-- Created with Inkscape (http://www.inkscape.org/) -->
<svg
   xmlns:dc="http://purl.org/dc/elements/1.1/"
   xmlns:cc="http://web.resource.org/cc/"
   xmlns:rdf="http://www.w3.org/1999/02/22-rdf-syntax-ns#"
   xmlns:svg="http://www.w3.org/2000/svg"
   xmlns="http://www.w3.org/2000/svg"
   xmlns:xlink="http://www.w3.org/1999/xlink"
   xmlns:sodipodi="http://inkscape.sourceforge.net/DTD/sodipodi-0.dtd"
   xmlns:inkscape="http://www.inkscape.org/namespaces/inkscape"
   inkscape:export-ydpi="90.000000"
   inkscape:export-xdpi="90.000000"
   inkscape:export-filename="/home/jimmac/Desktop/wi-fi.png"
   width="48px"
   height="48px"
   id="svg11300"
   sodipodi:version="0.32"
   inkscape:version="0.43+devel"
   sodipodi:docbase="/home/jimmac/ximian_art/icons/application-icons/tomboy/scalable"
   sodipodi:docname="tomboy.svg">
  <defs
     id="defs3">
    <linearGradient
       inkscape:collect="always"
       id="linearGradient6417">
      <stop
         style="stop-color:black;stop-opacity:1;"
         offset="0"
         id="stop6419" />
      <stop
         style="stop-color:black;stop-opacity:0;"
         offset="1"
         id="stop6421" />
    </linearGradient>
    <linearGradient
       inkscape:collect="always"
       id="linearGradient6407">
      <stop
         style="stop-color:white;stop-opacity:1;"
         offset="0"
         id="stop6409" />
      <stop
         style="stop-color:white;stop-opacity:0;"
         offset="1"
         id="stop6411" />
    </linearGradient>
    <linearGradient
       id="linearGradient6377">
      <stop
         style="stop-color:#fff27e;stop-opacity:1;"
         offset="0"
         id="stop6379" />
      <stop
         style="stop-color:#edd400;stop-opacity:1;"
         offset="1"
         id="stop6381" />
    </linearGradient>
    <linearGradient
       inkscape:collect="always"
       id="linearGradient5609">
      <stop
         style="stop-color:white;stop-opacity:1;"
         offset="0"
         id="stop5611" />
      <stop
         style="stop-color:white;stop-opacity:0;"
         offset="1"
         id="stop5613" />
    </linearGradient>
    <linearGradient
       inkscape:collect="always"
       id="linearGradient2865">
      <stop
         style="stop-color:#000000;stop-opacity:1;"
         offset="0"
         id="stop2867" />
      <stop
         style="stop-color:#000000;stop-opacity:0;"
         offset="1"
         id="stop2869" />
    </linearGradient>
    <radialGradient
       inkscape:collect="always"
       xlink:href="#linearGradient2865"
       id="radialGradient2871"
       cx="23.5625"
       cy="40.4375"
       fx="23.5625"
       fy="40.4375"
       r="19.5625"
       gradientTransform="matrix(1,0,0,0.348243,0,26.35543)"
       gradientUnits="userSpaceOnUse" />
    <linearGradient
       inkscape:collect="always"
       xlink:href="#linearGradient5609"
       id="linearGradient5615"
       x1="26.213203"
       y1="14.08672"
       x2="26.130388"
       y2="67.031342"
       gradientUnits="userSpaceOnUse" />
    <radialGradient
       inkscape:collect="always"
       xlink:href="#linearGradient6377"
       id="radialGradient6405"
       gradientUnits="userSpaceOnUse"
       gradientTransform="matrix(1.669712,8.698511e-18,1.702451e-8,1.220484,-30.23773,-15.79928)"
       cx="45.150326"
       cy="35.915409"
       fx="45.150326"
       fy="35.915409"
       r="21.626934" />
    <radialGradient
       inkscape:collect="always"
       xlink:href="#linearGradient6407"
       id="radialGradient6413"
       cx="43.875"
       cy="35.90107"
       fx="43.875"
       fy="35.90107"
       r="20.21875"
       gradientTransform="matrix(10.88255,-6.454846e-8,-1.415492e-15,11.39737,-433.5968,-381.3811)"
       gradientUnits="userSpaceOnUse" />
    <radialGradient
       inkscape:collect="always"
       xlink:href="#linearGradient6417"
       id="radialGradient6423"
       cx="39.907337"
       cy="31.780704"
       fx="39.907337"
       fy="31.780704"
       r="5.2591065"
       gradientTransform="matrix(1,0,0,0.361345,0,18.29694)"
       gradientUnits="userSpaceOnUse" />
  </defs>
  <sodipodi:namedview
     stroke="#c4a000"
     fill="#edd400"
     id="base"
     pagecolor="#ffffff"
     bordercolor="#666666"
     borderopacity="0.25490196"
     inkscape:pageopacity="0.0"
     inkscape:pageshadow="2"
     inkscape:zoom="1"
     inkscape:cx="39.928944"
     inkscape:cy="34.768014"
     inkscape:current-layer="layer1"
     showgrid="false"
     inkscape:grid-bbox="true"
     inkscape:document-units="px"
     inkscape:showpageshadow="false"
     inkscape:window-width="1154"
     inkscape:window-height="1053"
     inkscape:window-x="201"
     inkscape:window-y="68" />
  <metadata
     id="metadata4">
    <rdf:RDF>
      <cc:Work
         rdf:about="">
        <dc:format>image/svg+xml</dc:format>
        <dc:type
           rdf:resource="http://purl.org/dc/dcmitype/StillImage" />
        <dc:creator>
          <cc:Agent>
            <dc:title>Jakub Steiner</dc:title>
          </cc:Agent>
        </dc:creator>
        <dc:source>http://jimmac.musichall.cz</dc:source>
        <cc:license
           rdf:resource="http://creativecommons.org/licenses/GPL/2.0/" />
        <dc:title>Tomboy</dc:title>
      </cc:Work>
      <cc:License
         rdf:about="http://creativecommons.org/licenses/GPL/2.0/">
        <cc:permits
           rdf:resource="http://web.resource.org/cc/Reproduction" />
        <cc:permits
           rdf:resource="http://web.resource.org/cc/Distribution" />
        <cc:requires
           rdf:resource="http://web.resource.org/cc/Notice" />
        <cc:permits
           rdf:resource="http://web.resource.org/cc/DerivativeWorks" />
        <cc:requires
           rdf:resource="http://web.resource.org/cc/ShareAlike" />
        <cc:requires
           rdf:resource="http://web.resource.org/cc/SourceCode" />
      </cc:License>
    </rdf:RDF>
  </metadata>
  <g
     id="layer1"
     inkscape:label="Layer 1"
     inkscape:groupmode="layer">
    <path
       sodipodi:type="arc"
       style="opacity:0.62573099;color:black;fill:url(#radialGradient2871);fill-opacity:1;fill-rule:evenodd;stroke:none;stroke-width:1;stroke-linecap:butt;stroke-linejoin:miter;marker:none;marker-start:none;marker-mid:none;marker-end:none;stroke-miterlimit:4;stroke-dasharray:none;stroke-dashoffset:0;stroke-opacity:1;visibility:visible;display:inline;overflow:visible"
       id="path2863"
       sodipodi:cx="23.5625"
       sodipodi:cy="40.4375"
       sodipodi:rx="19.5625"
       sodipodi:ry="6.8125"
       d="M 43.125 40.4375 A 19.5625 6.8125 0 1 1  4,40.4375 A 19.5625 6.8125 0 1 1  43.125 40.4375 z"
       transform="matrix(1,0,0,0.651376,1.137583,11.43711)" />
    <path
       style="color:black;fill:#edd400;fill-opacity:1;fill-rule:evenodd;stroke:#c4a000;stroke-width:0.99999982;stroke-linecap:butt;stroke-linejoin:miter;marker:none;marker-start:none;marker-mid:none;marker-end:none;stroke-miterlimit:4;stroke-dashoffset:0;stroke-opacity:1;visibility:visible;display:inline;overflow:visible"
       d="M 10.301452,10.596007 L 38.950705,10.94956 C 39.713282,10.94956 40.194615,11.526206 40.327198,12.143397 C 40.327198,12.143397 44.728528,31.958541 44.728528,31.958541 C 44.728528,31.958541 44.740986,38.306163 44.740986,38.306163 C 44.740986,38.967549 44.127071,39.5 43.364494,39.5 L 5.8876636,39.5 C 5.1250868,39.5 4.5111713,38.967549 4.5111713,38.306163 L 4.4999999,32.139247 L 8.9249601,11.789844 C 9.2343193,11.128458 9.5388757,10.596007 10.301452,10.596007 z "
       id="rect1975"
       sodipodi:nodetypes="ccccccccccc" />
    <rect
       style="opacity:0.37078654;color:black;fill:#f57900;fill-opacity:1;fill-rule:evenodd;stroke:none;stroke-width:1;stroke-linecap:butt;stroke-linejoin:miter;marker:none;marker-start:none;marker-mid:none;marker-end:none;stroke-miterlimit:4;stroke-dasharray:none;stroke-dashoffset:0;stroke-opacity:1;visibility:visible;display:inline;overflow:visible"
       id="rect2851"
       width="39.048077"
       height="7.0714951"
       x="5.1146202"
       y="31.957905"
       rx="0.67937863"
       ry="0.67937863" />
    <path
       style="opacity:0.16292138;color:black;fill:white;fill-opacity:1;fill-rule:evenodd;stroke:none;stroke-width:1;stroke-linecap:butt;stroke-linejoin:miter;marker:none;marker-start:none;marker-mid:none;marker-end:none;stroke-miterlimit:4;stroke-dasharray:none;stroke-dashoffset:0;stroke-opacity:1;visibility:visible;display:inline;overflow:visible"
       d="M 5.0643333,32.53243 C 5.0643333,32.53243 5.2151951,32.0021 5.7683553,31.957906 L 43.332958,31.957906 C 44.087267,31.957906 44.137554,32.709207 44.137554,32.709207 C 44.137554,32.709207 44.161153,31.089634 42.853683,31.089634 L 6.4417985,31.089634 C 5.4360528,31.178022 5.0643333,31.869517 5.0643333,32.53243 z "
       id="path2853"
       sodipodi:nodetypes="ccccccc" />
    <path
       sodipodi:type="inkscape:offset"
       inkscape:radius="-1"
       inkscape:original="M 10.3125 10.59375 C 9.5499237 10.59375 9.2468592 11.119864 8.9375 11.78125 L 4.5 32.125 L 4.5 38.3125 C 4.5 38.973886 5.1124234 39.5 5.875 39.5 L 43.375 39.5 C 44.137577 39.5 44.75 38.973885 44.75 38.3125 C 44.75 38.3125 44.718751 31.968749 44.71875 31.96875 C 44.71875 31.96875 40.3125 12.15625 40.3125 12.15625 C 40.179917 11.539059 39.700076 10.9375 38.9375 10.9375 L 10.3125 10.59375 z "
       xlink:href="#rect1975"
       style="opacity:0.4831461;color:black;fill:none;fill-opacity:1;fill-rule:evenodd;stroke:url(#linearGradient5615);stroke-width:0.99999982;stroke-linecap:butt;stroke-linejoin:miter;marker:none;marker-start:none;marker-mid:none;marker-end:none;stroke-miterlimit:4;stroke-dashoffset:0;stroke-opacity:1;visibility:visible;display:inline;overflow:visible"
       id="path4730"
       inkscape:href="#rect1975"
       d="M 10.3125,13.59375 C 10.161184,13.59375 10.21304,13.567007 10.15625,13.625 C 10.105373,13.676955 10.000439,13.900085 9.875,14.15625 C 9.8604211,14.186022 9.8588161,14.18654 9.84375,14.21875 L 5.5,34.125 L 5.5,34.1875 L 5.5,40.3125 C 5.5,40.356573 5.5723676,40.5 5.875,40.5 L 43.375,40.5 C 43.677632,40.5 43.75,40.356571 43.75,40.3125 C 43.75,40.3125 43.719646,34.244353 43.71875,34.0625 C 43.718499,34.061373 43.719177,33.970668 43.71875,33.96875 C 43.625157,33.547912 39.34375,14.375 39.34375,14.375 C 39.2872,14.111751 39.174175,13.9375 38.9375,13.9375 L 10.3125,13.59375 z " />
    <path
       style="opacity:0.46629214;color:black;fill:url(#radialGradient6423);fill-opacity:1;fill-rule:evenodd;stroke:none;stroke-width:1;stroke-linecap:round;stroke-linejoin:miter;marker:none;marker-start:none;marker-mid:none;marker-end:none;stroke-miterlimit:4;stroke-dasharray:none;stroke-dashoffset:0;stroke-opacity:1;visibility:visible;display:inline;overflow:visible"
       d="M 44.194174,31.681088 C 43.814854,30.425759 43.31029,27.880389 43.31029,27.880389 L 34.383068,31.06237 C 40.128311,31.06237 42.956737,30.797205 44.194174,31.681088 z "
       id="path6415"
       sodipodi:nodetypes="cccc" />
    <path
       sodipodi:nodetypes="cczczcccc"
       id="path2524"
       d="M 8.7832195,12.426565 L 4.6483895,30.455844 C 4.6483895,30.455844 26.119997,30.580845 33.923967,30.580845 C 41.904536,30.580845 45.079034,27.612425 45.079034,27.612425 C 45.079034,27.612425 44.072291,27.158937 42.753925,22.645704 C 42.753925,22.645704 40.35014,12.145315 40.35014,12.145315 C 39.886699,10.958914 39.493934,10.481646 38.59375,10.489065 L 10.8125,10.489065 C 9.0672254,10.521152 9.0760813,11.324617 8.7832195,12.426565 z "
       style="fill:url(#radialGradient6405);fill-opacity:1;fill-rule:evenodd;stroke:#c4a000;stroke-width:0.99999964px;stroke-linecap:butt;stroke-linejoin:miter;stroke-opacity:1" />
    <path
       sodipodi:type="inkscape:offset"
       inkscape:radius="-1"
       inkscape:original="M 10.8125 10.5 C 9.0672254 10.532087 9.0741118 11.335552 8.78125 12.4375 L 4.65625 30.46875 C 4.6562502 30.468749 26.13353 30.59375 33.9375 30.59375 C 41.918071 30.59375 45.09375 27.625 45.09375 27.625 C 45.093751 27.625 44.068366 27.169483 42.75 22.65625 C 42.75 22.65625 40.34375 12.15625 40.34375 12.15625 C 39.880309 10.969849 39.493934 10.492581 38.59375 10.5 L 10.8125 10.5 z "
       xlink:href="#path2524"
       style="opacity:0.46629214;fill:none;fill-opacity:1;fill-rule:evenodd;stroke:url(#radialGradient6413);stroke-width:0.99999964px;stroke-linecap:butt;stroke-linejoin:miter;stroke-opacity:1"
       id="path6403"
       inkscape:href="#path2524"
       d="M 10.8125,13.5 C 10.172211,13.51823 10.104203,13.599785 10.0625,13.65625 C 10.019129,13.714974 9.9124269,14.076338 9.75,14.6875 L 5.90625,31.46875 C 7.6006857,31.478529 26.476894,31.59375 33.9375,31.59375 C 37.803786,31.59375 40.454778,30.879448 42.125,30.1875 C 43.179074,29.750813 43.238325,29.610471 43.5625,29.375 C 43.071872,28.585095 42.457459,27.252403 41.78125,24.9375 C 41.780599,24.916672 41.780599,24.895828 41.78125,24.875 C 41.78125,24.875 39.475321,14.832651 39.40625,14.53125 C 39.192263,13.983448 39.024353,13.680487 38.9375,13.59375 C 38.850647,13.507013 38.865951,13.497757 38.59375,13.5 L 10.84375,13.5 L 10.8125,13.5 z " />
    <path
       sodipodi:nodetypes="ccccccc"
       id="path6359"
       d="M 5.0643333,34.53243 C 5.0643333,34.53243 5.2151951,34.0021 5.7683553,33.957906 L 43.332958,33.957906 C 44.087267,33.957906 44.137554,34.709207 44.137554,34.709207 C 44.137554,34.709207 44.161153,33.089634 42.853683,33.089634 L 6.4417985,33.089634 C 5.4360528,33.178022 5.0643333,33.869517 5.0643333,34.53243 z "
       style="opacity:0.26404497;color:black;fill:white;fill-opacity:1;fill-rule:evenodd;stroke:none;stroke-width:1;stroke-linecap:butt;stroke-linejoin:miter;marker:none;marker-start:none;marker-mid:none;marker-end:none;stroke-miterlimit:4;stroke-dasharray:none;stroke-dashoffset:0;stroke-opacity:1;visibility:visible;display:inline;overflow:visible" />
    <path
       style="opacity:0.26404497;color:black;fill:white;fill-opacity:1;fill-rule:evenodd;stroke:none;stroke-width:1;stroke-linecap:butt;stroke-linejoin:miter;marker:none;marker-start:none;marker-mid:none;marker-end:none;stroke-miterlimit:4;stroke-dasharray:none;stroke-dashoffset:0;stroke-opacity:1;visibility:visible;display:inline;overflow:visible"
       d="M 5.0643333,36.53243 C 5.0643333,36.53243 5.2151951,36.0021 5.7683553,35.957906 L 43.332958,35.957906 C 44.087267,35.957906 44.137554,36.709207 44.137554,36.709207 C 44.137554,36.709207 44.161153,35.089634 42.853683,35.089634 L 6.4417985,35.089634 C 5.4360528,35.178022 5.0643333,35.869517 5.0643333,36.53243 z "
       id="path6361"
       sodipodi:nodetypes="ccccccc" />
    <path
       sodipodi:nodetypes="ccccccc"
       id="path6363"
       d="M 5.0643333,38.53243 C 5.0643333,38.53243 5.2151951,38.0021 5.7683553,37.957906 L 43.332958,37.957906 C 44.087267,37.957906 44.137554,38.709207 44.137554,38.709207 C 44.137554,38.709207 44.161153,37.089634 42.853683,37.089634 L 6.4417985,37.089634 C 5.4360528,37.178022 5.0643333,37.869517 5.0643333,38.53243 z "
       style="opacity:0.26404497;color:black;fill:white;fill-opacity:1;fill-rule:evenodd;stroke:none;stroke-width:1;stroke-linecap:butt;stroke-linejoin:miter;marker:none;marker-start:none;marker-mid:none;marker-end:none;stroke-miterlimit:4;stroke-dasharray:none;stroke-dashoffset:0;stroke-opacity:1;visibility:visible;display:inline;overflow:visible" />
    <path
       style="opacity:0.46629214;color:black;fill:black;fill-opacity:1;fill-rule:nonzero;stroke:none;stroke-width:1;stroke-linecap:round;stroke-linejoin:miter;marker:none;marker-start:none;marker-mid:none;marker-end:none;stroke-miterlimit:4;stroke-dasharray:none;stroke-dashoffset:0;stroke-opacity:1;visibility:visible;display:inline;overflow:visible"
       id="path6433"
       d="M 16.258473,21.879896 C 17.538058,20.297081 19.342632,19.196992 20.998322,18.048069 C 23.294254,16.824521 25.366138,14.733362 27.946273,14.108337 C 28.420772,14.183281 28.961463,14.080085 29.36977,14.333169 C 29.731927,14.557649 26.823933,18.300684 26.615173,18.590617 C 26.375021,18.938018 25.739104,19.832603 25.511033,20.248078 C 25.39726,20.455337 25.583748,20.921983 25.347882,20.938359 C 23.59047,21.060378 24.340159,20.810239 24.834939,20.572168 C 25.799592,19.922274 26.786047,19.232482 27.515252,18.312791 C 27.512149,17.811917 29.142944,17.81786 28.518021,18.380281 C 28.225744,18.880326 28.49495,18.971422 28.989208,19.079215 C 30.643203,19.265867 30.654253,19.183781 32.01549,19.112262 C 33.043879,19.034729 34.065042,19.001118 35.058325,19.270613 C 35.492756,19.408032 35.937671,19.498347 36.385279,19.577876 L 35.136511,19.754671 C 34.687561,19.666815 34.240556,19.571274 33.80347,19.433485 C 31.848126,18.963008 34.647817,19.472802 33.173466,19.289856 C 31.376628,19.371898 29.562582,19.468349 27.773849,19.241666 C 27.192002,19.082956 26.944822,18.865206 27.243083,18.296414 C 27.663294,17.773076 29.306674,17.58131 28.752522,18.399806 C 27.955379,19.288379 26.960525,19.974649 26.018178,20.697284 C 23.317459,22.505399 24.182482,19.298292 25.599307,18.527165 C 25.848613,18.180572 28.10306,14.452789 28.127887,14.43896 C 28.41589,14.278547 28.777408,14.325662 29.102169,14.269013 C 26.415072,14.669368 24.239398,16.864905 21.937512,18.138173 C 20.387863,19.249684 18.61496,20.332724 17.542375,21.947759 L 16.258473,21.879896 z " />
    <path
       style="opacity:0.46629214;color:black;fill:black;fill-opacity:1;fill-rule:nonzero;stroke:none;stroke-width:1;stroke-linecap:round;stroke-linejoin:miter;marker:none;marker-start:none;marker-mid:none;marker-end:none;stroke-miterlimit:4;stroke-dasharray:none;stroke-dashoffset:0;stroke-opacity:1;visibility:visible;display:inline;overflow:visible"
       id="path6439"
       d="M 17.686648,18.439844 C 17.134316,19.330628 16.647027,20.259544 16.129789,21.170722 C 14.057622,21.612198 14.982083,20.895887 15.450407,19.551754 C 15.855889,18.461092 16.089675,17.330384 15.973689,16.167912 C 15.070863,15.134106 17.407418,14.958649 15.809419,16.042105 C 14.936517,16.775932 14.265649,17.709003 13.656347,18.664232 C 13.39853,19.116631 13.127903,19.42419 13.693487,19.593289 C 15.099272,19.701725 16.512971,19.677336 17.922045,19.681075 C 19.248588,19.689666 20.574913,19.662234 21.900907,19.62797 L 23.030962,19.804554 C 21.667292,19.826237 20.303511,19.846643 18.939618,19.842163 C 16.775673,19.844212 14.598722,19.910607 12.439713,19.757352 C 11.804603,19.515277 12.145978,19.026332 12.440423,18.592576 C 13.094076,17.654935 13.768114,16.715475 14.60238,15.928517 C 15.36059,15.328816 17.08132,14.821772 17.197805,16.159352 C 17.246258,17.336204 17.020336,18.481202 16.628495,19.590178 C 16.175249,20.972527 16.145309,21.534397 14.906709,21.102719 C 15.488284,20.240333 15.979668,19.320051 16.400022,18.368794 L 17.686648,18.439844 z " />
    <path
       style="opacity:0.46629214;color:black;fill:black;fill-opacity:1;fill-rule:nonzero;stroke:none;stroke-width:1;stroke-linecap:round;stroke-linejoin:miter;marker:none;marker-start:none;marker-mid:none;marker-end:none;stroke-miterlimit:4;stroke-dasharray:none;stroke-dashoffset:0;stroke-opacity:1;visibility:visible;display:inline;overflow:visible"
       id="path6443"
       d="M 14.028801,25.573491 C 15.842687,25.082297 17.65821,24.608718 19.496598,24.211829 C 22.725843,23.534846 26.008814,23.183294 29.28054,22.785856 C 33.832923,22.64965 28.553737,23.501194 27.515325,23.743649 C 24.586815,24.405497 21.718674,25.322432 19.011464,26.624886 C 17.660522,27.414233 18.319815,27.483898 16.926445,27.446365 C 19.272528,27.101847 21.59582,26.585665 23.935018,26.177573 C 27.954893,25.480573 32.005401,24.983368 36.041835,24.395126 C 37.97564,24.105139 37.062603,24.243128 38.781045,23.981827 L 40.010656,24.15872 C 38.19252,24.403052 39.153962,24.27254 37.12646,24.551198 C 33.093391,25.114081 29.048787,25.609632 25.040086,26.332561 C 22.806455,26.74403 20.591139,27.235458 18.365292,27.672764 C 15.705023,27.640561 16.10869,27.390609 17.713381,26.476511 C 20.491312,25.242852 23.389283,24.301282 26.342973,23.586533 C 26.551173,23.533789 33.777209,22.157663 30.537149,22.970565 C 27.223244,23.311226 23.901386,23.661411 20.641366,24.367604 C 18.915504,24.761357 17.207173,25.209517 15.531089,25.781123 L 14.028801,25.573491 z " />
  </g>
</svg>
